HIERARCHY
ROOT pelvis
{
  OFFSET 0 100 0
  CHANNELS 6 Xposition Yposition Zposition Zrotation Xrotation Yrotation
  JOINT pelvis_right_femur
  {
    OFFSET -10.78128 -3.44521 -0.5502486
    CHANNELS 3 Zrotation Xrotation Yrotation
    JOINT right_femur_tibia
    {
      OFFSET -0.8047443 -44.0398 -0.1307829
      CHANNELS 3 Zrotation Xrotation Yrotation
      JOINT right_tibia_foot
      {
        OFFSET 3.006224 -47.83518 -5
        CHANNELS 3 Zrotation Xrotation Yrotation
        End Site
        {
          OFFSET 0 -5 15
        }
      }
    }
  }
  JOINT pelvis_left_femur
  {
    OFFSET 10.78128 -3.44521 -0.5502486
    CHANNELS 3 Zrotation Xrotation Yrotation
    JOINT left_femur_tibia
    {
      OFFSET 0.8047443 -44.0398 -0.1307829
      CHANNELS 3 Zrotation Xrotation Yrotation
      JOINT left_tibia_foot
      {
        OFFSET -4.370144 -48.10324 -4.275266
        CHANNELS 3 Zrotation Xrotation Yrotation
        End Site
        {
          OFFSET 0 -5 15
        }
      }
    }
  }
  JOINT pelvis_spine1
  {
    OFFSET 0 6.468898 -3.129235
    CHANNELS 3 Zrotation Xrotation Yrotation
    JOINT spine1
    {
      OFFSET 0 23.15396 4.99043
      CHANNELS 3 Zrotation Xrotation Yrotation
      JOINT spine2
      {
        OFFSET 0 20.79997 -5.064912
        CHANNELS 3 Zrotation Xrotation Yrotation
        JOINT neck
        {
          OFFSET 0 14.38658 9.616178
          CHANNELS 3 Zrotation Xrotation Yrotation
          End Site
          {
            OFFSET 0 20 0
          }
        }
      }
      JOINT right_manubrium
      {
        OFFSET -5.722621 16.35077 3.967754
        CHANNELS 3 Zrotation Xrotation Yrotation
        JOINT right_clavicle
        {
          OFFSET -13.16364 1.694482 -4.693211
          CHANNELS 3 Zrotation Xrotation Yrotation
          JOINT right_humerus
          {
            OFFSET -28.5034 -0.3100689 -2.792744
            CHANNELS 3 Zrotation Xrotation Yrotation
            JOINT right_radius
            {
              OFFSET -25.15693 0.02248979 -1.271978
              CHANNELS 3 Zrotation Xrotation Yrotation
              End Site
              {
                OFFSET -15 0 0
              }
            }
          }
        }
      }
      JOINT left_manubrium
      {
        OFFSET 5.722621 16.35077 3.967754
        CHANNELS 3 Zrotation Xrotation Yrotation
        JOINT left_clavicle
        {
          OFFSET 13.16364 1.694482 -4.693211
          CHANNELS 3 Zrotation Xrotation Yrotation
          JOINT left_humerus
          {
            OFFSET 29.39168 -1.063119 -2.237045
            CHANNELS 3 Zrotation Xrotation Yrotation
            JOINT left_radius
            {
              OFFSET 24.59957 -0.9528479 0.9047498
              CHANNELS 3 Zrotation Xrotation Yrotation
              End Site
              {
                OFFSET 15 -0 -0
              }
            }
          }
        }
      }
    }
  }
}
MOTION
Frames: 7
Frame Time: 0.0416666666667
436.9912 77.62438 3186.99 0.7853231 -12.80745 -1.318567 3.866696 3.68558 4.289825 -0 23.31954 -0 -1.243172 -12.32476 -8.060357 -2.393753 -3.833648 -7.515705 -0 51.45304 -0 -8.789427 -9.171916 19.00216 -0.9882096 2.26602 4.902062 -0.5406087 8.62539 -2.890273 4.494447 25.92724 2.746669 0.8634464 -12.42491 7.781881 0.3395036 -14.29541 10.06947 86.87662 20.44307 -11.25841 -0 0 12.16127 -19.04221 10.71766 7.445622 4.450158 -15.98347 -3.872454 -88.35783 25.36172 10.9729 0 0 -11.93245 0.2923332 11.26713 11.62085
436.7666 77.6173 3193.05 0.6500415 -12.82917 -2.050421 3.758994 6.562386 4.317664 -0 23.64074 -0 -0.3675968 -12.90145 -7.486146 -1.940582 -7.573284 -6.735537 -0 47.8521 -0 -8.545672 -9.158746 19.61079 -0.9153282 2.336067 5.442498 -0.7800863 8.757301 -2.564954 4.363853 25.70279 2.834351 0.7656411 -12.54751 7.763787 -0.06747257 -15.45574 10.13295 86.15828 19.59318 -9.743302 -0 0 14.24683 -20.10795 10.53584 8.271923 4.438213 -15.53402 -3.806894 -89.25972 25.10829 12.93681 0 0 -11.09429 -0.301114 10.47964 12.4031
436.6415 77.40772 3199.213 0.4613498 -12.68257 -2.728099 3.649087 9.006952 4.594583 -0 24.67465 -0 0.8239867 -13.26125 -7.051972 -1.485286 -10.7125 -5.994899 -0 43.32523 -0 -8.300411 -9.215809 20.12487 -0.7924824 2.297888 5.945287 -0.9885033 8.893811 -2.337039 4.223183 25.29752 2.968257 0.6009189 -12.8024 7.842808 -0.5008934 -16.66994 10.14297 85.57927 18.5714 -8.404863 -0 0 16.51146 -21.16152 10.41675 9.13418 4.413721 -15.03207 -3.693279 -90.1216 24.82425 14.99326 0 0 -10.30295 -0.9744427 9.375256 13.39477
436.6228 77.07025 3205.54 0.2669347 -12.37233 -3.320256 3.499798 10.88898 5.047837 -0 26.43657 -0 2.159046 -13.20706 -6.750889 -1.133646 -13.07607 -5.396875 -0 38.76243 -0 -8.076677 -9.287602 20.47477 -0.6721173 2.153382 6.395685 -1.154689 9.042475 -2.214922 4.077916 24.76413 3.157466 0.4374608 -13.18342 7.986124 -0.8443006 -17.79323 10.12452 85.14015 17.64881 -7.376359 -0 0 18.65139 -22.15185 10.42159 9.970582 4.352453 -14.54517 -3.551318 -90.88523 24.54543 17.00163 0 0 -9.616956 -1.653533 8.125568 14.49533
436.7074 76.70915 3212.062 0.1317076 -11.95521 -3.793463 3.264754 12.12791 5.55424 -0 28.84799 -0 3.456135 -12.59919 -6.57918 -0.9830463 -14.5846 -5.001921 -0 34.94783 -0 -7.874637 -9.348404 20.60467 -0.6228573 1.923931 6.778767 -1.278687 9.217212 -2.197886 3.9288 24.18323 3.402976 0.3389691 -13.63447 8.146239 -0.9947391 -18.6902 10.1134 84.81817 17.07737 -6.7503 -0 0 20.36363 -23.08167 10.60915 10.74324 4.24067 -14.16115 -3.42333 -91.45266 24.29264 18.7612 0 0 -9.137681 -2.263465 6.921236 15.57422
436.8865 76.43059 3218.77 0.1034694 -11.51996 -4.116624 2.920412 12.68209 6.000289 -0 31.81517 -0 4.586505 -11.41507 -6.544594 -1.083595 -15.23622 -4.815969 -0 32.29894 -0 -7.680675 -9.408803 20.49099 -0.692647 1.646796 7.07469 -1.365881 9.430814 -2.279491 3.773256 23.63341 3.694691 0.3352408 -14.07753 8.283414 -0.9019696 -19.28116 10.14061 84.59868 16.98181 -6.558754 -0 0 21.45684 -23.96675 11.00072 11.43283 4.077155 -13.94833 -3.356334 -91.7328 24.08164 20.09207 0 0 -8.95885 -2.758853 5.900146 16.52746
437.15 76.31719 3225.623 0.1924666 -11.15707 -4.263226 2.481527 12.53242 6.323759 -0 35.25005 -0 5.502708 -9.768484 -6.665196 -1.42293 -15.06952 -4.80054 -0 30.78484 -0 -7.479583 -9.509711 20.15005 -0.8863833 1.366334 7.258052 -1.421161 9.685927 -2.450858 3.610393 23.16929 4.010624 0.4111909 -14.44092 8.380588 -0.5875013 -19.55749 10.2168 84.49726 17.31654 -6.775562 -0 0 21.90174 -24.79867 11.56495 12.02482 3.873415 -13.93033 -3.384261 -91.67854 23.92586 20.88661 0 0 -9.124205 -3.129164 5.112844 17.30333
